<?xml version="1.0" encoding="utf-8"?>
<svg width="12px" height="8px" viewBox="0 0 12 8" version="1.1" xmlns:xlink="http://www.w3.org/1999/xlink" xmlns="http://www.w3.org/2000/svg">
  <desc>Created with Lunacy</desc>
  <path d="M1.45632 1.65822L4.68528 5.33485Q4.72034 5.37477 4.75944 5.41075Q4.79853 5.44672 4.84122 5.47835Q4.88392 5.50998 4.92972 5.5369Q4.97553 5.56382 5.02393 5.58573Q5.07233 5.60764 5.12278 5.62429Q5.17324 5.64094 5.22517 5.65215Q5.27711 5.66336 5.32994 5.66899Q5.38277 5.67463 5.4359 5.67463Q5.48903 5.67463 5.54186 5.66899Q5.59469 5.66336 5.64662 5.65215Q5.69856 5.64094 5.74901 5.62429Q5.79947 5.60764 5.84787 5.58573Q5.89627 5.56382 5.94208 5.5369Q5.98788 5.50998 6.03057 5.47835Q6.07326 5.44672 6.11236 5.41075Q6.15146 5.37477 6.18652 5.33485L9.41548 1.65822Q9.43909 1.63134 9.46072 1.60283Q9.48235 1.57432 9.50188 1.54434Q9.52141 1.51436 9.53875 1.48306Q9.55609 1.45175 9.57115 1.41929Q9.5862 1.38683 9.5989 1.35337Q9.61159 1.31992 9.62186 1.28564Q9.63212 1.25136 9.63991 1.21643Q9.6477 1.18151 9.65297 1.14611Q9.65824 1.11072 9.66096 1.07504Q9.66369 1.03936 9.66385 1.00358Q9.66401 0.967794 9.66162 0.932091Q9.65922 0.896387 9.65427 0.860947Q9.64933 0.825507 9.64186 0.790511Q9.63439 0.755516 9.62444 0.721144Q9.61449 0.686773 9.6021 0.653201Q9.58972 0.61963 9.57496 0.587031Q9.5602 0.554431 9.54315 0.522972Q9.5261 0.491512 9.50684 0.461352Q9.48759 0.431193 9.46622 0.402489Q9.44485 0.373785 9.42149 0.346683Q9.39812 0.319581 9.37288 0.29422Q9.34763 0.26886 9.32064 0.24537Q9.29364 0.221881 9.26504 0.200383Q9.23643 0.178885 9.20636 0.159489Q9.17629 0.140093 9.14491 0.122898Q9.11352 0.105703 9.08099 0.0907969Q9.04846 0.0758912 9.01495 0.0633513Q8.98143 0.0508113 8.94711 0.0407013Q8.91278 0.0305913 8.87782 0.0229631Q8.84286 0.015335 8.80744 0.0102277Q8.77203 0.0051204 8.73634 0.0025602Q8.70064 0 8.66486 0L2.20694 0Q2.17115 0 2.13546 0.0025602Q2.09977 0.0051204 2.06435 0.0102277Q2.02893 0.015335 1.99397 0.0229631Q1.95901 0.0305913 1.92469 0.0407013Q1.89036 0.0508113 1.85685 0.0633513Q1.82333 0.0758912 1.7908 0.0907969Q1.75827 0.105703 1.72689 0.122898Q1.69551 0.140093 1.66544 0.159489Q1.63537 0.178885 1.60676 0.200383Q1.57815 0.221881 1.55116 0.24537Q1.52416 0.26886 1.49892 0.29422Q1.47367 0.319581 1.45031 0.346683Q1.42694 0.373785 1.40558 0.402489Q1.38421 0.431193 1.36495 0.461352Q1.34569 0.491512 1.32864 0.522972Q1.31159 0.554431 1.29684 0.587031Q1.28208 0.61963 1.26969 0.653201Q1.25731 0.686773 1.24735 0.721144Q1.2374 0.755516 1.22993 0.790511Q1.22247 0.825507 1.21752 0.860947Q1.21258 0.896387 1.21018 0.932091Q1.20778 0.967794 1.20795 1.00358Q1.20811 1.03936 1.21083 1.07504Q1.21356 1.11072 1.21883 1.14611Q1.2241 1.18151 1.23188 1.21643Q1.23967 1.25136 1.24994 1.28564Q1.26021 1.31992 1.2729 1.35337Q1.28559 1.38683 1.30065 1.41929Q1.3157 1.45175 1.33304 1.48306Q1.35038 1.51436 1.36991 1.54434Q1.38945 1.57432 1.41108 1.60283Q1.43271 1.63134 1.45632 1.65822L1.45632 1.65822Z" transform="translate(0.5 0.5)" id="Path-35" fill="#29558C" stroke="none" />
</svg>